<svg xmlns="http://www.w3.org/2000/svg" enable-background="new 0 0 130 130" viewBox="0 0 130 130" id="drop-down"><circle cx="65" cy="65" r="64" fill="#168DE2"></circle><path fill="#2E6BCE" d="M50.15211 49.08418h32.18326c4.51863 0 7.21407 5.03573 4.70806 8.79577L70.95556 82.01829c-2.23915 3.35963-7.17556 3.36017-9.41544.00101L45.44473 57.88097C42.93759 54.12101 45.63293 49.08418 50.15211 49.08418zM66.4335 117.1284c-.54882.00208-1.0928-.00465-1.63583-.02018-.55182-.01452-.98716-.47478-.97166-1.02661.01549-.5528.47092-.97639 1.0266-.97263.52155.01463 1.04599.02144 1.57137.01945.78613-.00492 1.57023-.02644 2.34938-.06552.5702-.03242 1.02104.39751 1.04949.94819.02747.55166-.39654 1.02104-.94819 1.04949C68.06622 117.10173 67.25282 117.12336 66.4335 117.1284zM58.85816 116.58672c-.0498.00019-.1006-.00352-.15141-.01115-6.09135-.90374-11.90553-2.88666-17.28217-5.89371-.48247-.26966-.6547-.87936-.38503-1.36086.26868-.48247.87839-.65469 1.36086-.38503 5.16525 2.8887 10.74964 4.79339 16.59964 5.66191.54621.08094.92313.58929.84219 1.1355C59.76892 116.22878 59.34449 116.58488 58.85816 116.58672zM74.78335 116.40055c-.47948.00182-.90364-.34229-.98849-.83025-.09386-.54457.27138-1.06158.81595-1.15543 4.84063-.83471 9.51251-2.39242 13.88494-4.63162.4883-.25478 1.09354-.05686 1.3454.43437.25186.49124.05785 1.09354-.43437 1.34541-4.55177 2.33167-9.41579 3.95358-14.45648 4.82323C74.89466 116.39525 74.83804 116.40034 74.78335 116.40055zM94.11543 108.62625c-.32227.00122-.64023-.15285-.8337-.44118-.30936-.45782-.18768-1.07938.27014-1.38775 4.90257-3.30762 9.12726-7.42908 12.55632-12.25165.3196-.44946.94321-.55728 1.39463-.23477.44946.3196.55534.9442.23476 1.39463-3.56797 5.01743-7.96487 9.30752-13.06811 12.74969C94.49998 108.57011 94.30684 108.62553 94.11543 108.62625zM36.86787 107.57212c-.20507.00078-.41332-.06191-.59253-.1921-4.13056-3.0137-7.77703-6.61909-10.83647-10.714-.3298-.44309-.2394-1.06941.20272-1.40019.44504-.33078 1.06941-.2394 1.40019.20272 2.9397 3.93618 6.44305 7.39953 10.41301 10.29568.44557.32546.54364.95107.21817 1.39762C37.47769 107.42919 37.17549 107.57096 36.86787 107.57212zM22.95367 92.05917c-.34765.00131-.68623-.17905-.87202-.50256-.6783-1.18105-1.31278-2.3974-1.88672-3.61399-.23529-.49911-.02172-1.09563.47837-1.33092.5001-.23334 1.09563-.02172 1.33092.47837.55032 1.16785 1.1602 2.33547 1.81196 3.47169.27525.47845.10959 1.08944-.36984 1.36469C23.2914 92.01591 23.12164 92.05854 22.95367 92.05917zM110.10181 91.04031c-.1621.00061-.32729-.03783-.47995-.12124-.48537-.26379-.66541-.87054-.40161-1.35591.62457-1.14885 1.20702-2.33173 1.73281-3.51732.22368-.50475.81364-.73257 1.31937-.50792.50476.22368.73258.81462.5089 1.31937-.5471 1.23353-1.15379 2.46434-1.80357 3.66016C110.79739 90.85018 110.45532 91.03898 110.10181 91.04031zM18.87624 82.9505c-.42089.00159-.81351-.26451-.95279-.68586-1.68821-5.09229-2.55405-10.41914-2.57354-15.83316-.00284-.75195.00996-1.50005.04034-2.24529.02233-.55185.51877-.97755 1.03935-.95901.55185.02233.98134.48751.95901 1.03935-.02855.71593-.04145 1.43474-.03872 2.15739.01869 5.20212.85054 10.32011 2.47158 15.21147.17386.52473-.11014 1.09027-.6339 1.26412C19.08419 82.93408 18.97878 82.95011 18.87624 82.9505zM113.96645 81.8313c-.09766.00037-.19732-.0139-.29607-.0438-.52796-.16109-.825-.71954-.66391-1.24847 1.42669-4.67339 2.14069-9.54723 2.12202-14.48469-.00839-2.48045-.20531-4.97094-.58463-7.40409-.08508-.54558.28799-1.05676.83358-1.14183.54069-.08798 1.05676.288 1.14183.83358.39532 2.53271.60043 5.12472.60921 7.70478.01942 5.13766-.72411 10.21082-2.20963 15.07682C114.78766 81.5528 114.3932 81.82969 113.96645 81.8313zM16.98885 59.26313c-.05371.0002-.10841-.0035-.16314-.01306-.54526-.08778-.91634-.60006-.82856-1.14531.811-5.049 2.3785-9.93093 4.65807-14.51185.2452-.49409.84406-.69558 1.34109-.44941.4941.24618.69559.84601.44941 1.34108-2.18944 4.39893-3.69419 9.08825-4.4747 13.93694C17.8928 58.91205 17.47029 59.26131 16.98885 59.26313zM114.2554 53.64153c-.4375.00165-.83995-.28589-.96467-.72781-.35434-1.25062-.76436-2.50396-1.21819-3.72491-.19239-.51783.07107-1.09305.5889-1.28544.51685-.19238 1.09305.07107 1.28544.5889.47258 1.27068.89938 2.57475 1.26759 3.87707.15044.53069-.15802 1.08361-.68968 1.23406C114.43504 53.62914 114.34525 53.64119 114.2554 53.64153zM110.58943 44.35942c-.36328.00137-.71461-.19554-.89268-.54058-2.25281-4.35675-5.14486-8.34487-8.59565-11.85431-.38723-.39405-.38181-1.02688.01224-1.41412.39307-.38626 1.0259-.38279 1.41412.01223 3.59098 3.65149 6.60083 7.80225 8.94514 12.33737.25381.49025.06175 1.09352-.4285 1.34733C110.89789 44.3231 110.74275 44.35884 110.58943 44.35942zM24.54342 39.84088c-.18945.00072-.38204-.05227-.55239-.16491-.46111-.30392-.58943-.92356-.28551-1.38467.74281-1.12879 1.54231-2.24413 2.37811-3.31565.33918-.4339.96584-.5144 1.40365-.17327.43488.33918.51343.96779.17327 1.40365-.80276 1.02941-1.57117 2.10068-2.28485 3.18444C25.18442 39.68123 24.86763 39.83965 24.54342 39.84088zM30.83839 32.09144c-.25586.00097-.51208-.09572-.70813-.29029-.3921-.38914-.39449-1.02195-.00534-1.41405 4.34676-4.37877 9.38332-7.89392 14.96843-10.44825.50304-.23042 1.09568-.00903 1.32512.49402.22944.50207.00903 1.09568-.49402 1.32512-5.36479 2.45291-10.20362 5.8306-14.38013 10.03782C31.34974 31.99185 31.09425 32.09048 30.83839 32.09144zM97.36437 28.24719c-.21973.00083-.44167-.0706-.62681-.21931-4.63219-3.70224-9.82737-6.50001-15.44366-8.31669-.52505-.16989-.81332-.73326-.64343-1.25929.16891-.52408.72934-.81722 1.25929-.64344 5.84605 1.891 11.25554 4.80319 16.07581 8.65805.43196.34407.50172.9737.15668 1.40469C97.94592 28.11804 97.65734 28.24608 97.36437 28.24719zM51.10513 19.6876c-.42578.00161-.82134-.27033-.95674-.69658-.16703-.52672.12381-1.08934.64955-1.25637 4.85162-1.54276 9.91504-2.34511 15.05066-2.38405.00098 0 .00293-.00001.00391-.00002.55078-.00208.99973.44154 1.00376.99231.00404.55272-.44054 1.00362-.99229 1.00766-4.93544.03721-9.79975.80755-14.45922 2.29002C51.30527 19.6722 51.20376 19.68723 51.10513 19.6876zM75.79914 18.2632c-.06445.00024-.12893-.00537-.1944-.01782-1.2822-.24809-2.58569-.44629-3.87336-.59083-.54906-.0614-.94351-.55601-.88211-1.10507.06141-.54809.54819-.94642 1.10507-.88211 1.33945.15021 2.6957.35602 4.02969.61368.5424.10537.89692.62943.79252 1.17182C76.6846 17.92977 76.26691 18.26143 75.79914 18.2632zM66.39532 107.54352c-2.28026.00862-4.56806-.17023-6.79698-.53095-.54526-.08778-.91634-.60103-.82758-1.14629.08778-.54526.6049-.92612 1.14629-.82758 4.77835.77296 9.79648.6534 14.53685-.35378.5386-.12118 1.07217.23032 1.18553.76994.11533.54058-.22935 1.07118-.76994 1.18553C72.10023 107.22899 69.24979 107.53273 66.39532 107.54352zM53.93194 105.62968c-.10156.00039-.20611-.01485-.30877-.04766-1.29063-.41309-2.58154-.89845-3.83458-1.44254-.50572-.22075-.73842-.80972-.51865-1.31641.22075-.50571.80777-.73646 1.31641-.51865 1.19142.51796 2.41876.98012 3.64682 1.37294.52603.16794.81527.7313.64734 1.25733C54.74538 105.35805 54.35382 105.62808 53.93194 105.62968zM80.41796 104.98074c-.40625.00153-.78902-.24604-.93996-.6488-.19434-.51685.06715-1.09303.58498-1.28738 5.44934-2.04601 10.47201-5.35896 14.5264-9.57939.38326-.39989 1.01604-.4101 1.41396-.02878.39891.38326.41107 1.01603.02879 1.41396-4.25964 4.43507-9.53948 7.91599-15.26675 10.06657C80.65128 104.96032 80.5332 104.9803 80.41796 104.98074zM44.88573 101.42947c-.18262.00069-.36737-.04842-.53378-.15228-5.19788-3.25381-9.68643-7.70758-12.9814-12.88168-.29668-.46568-.15937-1.08437.30631-1.38105.46764-.29572 1.08437-.1584 1.38105.3063 3.13582 4.92471 7.40871 9.16444 12.356 12.261.46791.29315.60989.90981.31674 1.37869C45.54135 101.26195 45.21776 101.42822 44.88573 101.42947zM99.13403 90.54075c-.20117.00076-.40453-.05902-.58176-.18433-.45043-.31959-.55631-.94419-.23672-1.39462.74992-1.05656 1.45472-2.16274 2.09599-3.28725.27357-.48052.88525-.64788 1.36383-.3743.48053.27358.64788.88428.3743 1.36383-.67425 1.18224-1.41498 2.34424-2.20277 3.45562C99.75261 90.3929 99.44554 90.53957 99.13403 90.54075zM29.38748 83.57874c-.38476.00145-.75279-.21982-.91924-.59419-2.08713-4.70308-3.26132-9.70649-3.49179-14.87363-.02455-.55167.4024-1.0191.95407-1.04365.55348-.06166 1.02008.4024 1.04365.95407.21878 4.91718 1.33737 9.6786 3.32304 14.1516.22359.50501-.00367 1.09572-.50868 1.32029C29.65788 83.55038 29.52127 83.57823 29.38748 83.57874zM103.85573 81.75428c-.12109.00046-.24422-.02056-.36354-.06698-.5154-.19923-.77248-.77834-.57325-1.29277 1.76012-4.56039 2.64331-9.37236 2.62466-14.30396-.00289-.7666-.02725-1.52725-.07308-2.28295-.03333-.55164.38578-1.0249.93742-1.05824.54189-.02842 1.02393.38578 1.05824.93741.0489.79474.07442 1.60129.07742 2.39621.01958 5.1816-.90858 10.23885-2.75864 15.03104C104.63216 81.51014 104.25514 81.75278 103.85573 81.75428zM26.15176 63.07618c-.03516.00013-.0713-.00168-.10744-.00546-.54905-.05652-.94836-.5472-.89185-1.09722.13942-1.35308.34814-2.7152.62045-4.04827.10929-.54046.62747-.89789 1.17968-.77888.54046.11026.89011.63824.77888 1.17968-.25888 1.26759-.45711 2.56424-.58993 3.85284C27.08879 62.69177 26.65664 63.07427 26.15176 63.07618zM105.66355 58.81076c-.46289.00175-.88012-.31992-.98054-.79122-.27141-1.27047-.60823-2.53873-1.00156-3.76773-.168-.52573.12284-1.08934.64857-1.25734.53258-.16608 1.08836.12284 1.25735.64857.41211 1.29142.76578 2.62408 1.0511 3.95894.11532.53961-.22838 1.07119-.76896 1.18651C105.80024 58.80341 105.73191 58.8105 105.66355 58.81076zM28.39433 53.35572c-.11621.00044-.23347-.01865-.34887-.06118-.5183-.19043-.78415-.76462-.59372-1.2839 2.10915-5.7463 5.55104-11.05231 9.95379-15.34437.39601-.38431 1.02885-.37792 1.41414.01809.38528.39503.37694 1.02886-.01809 1.41414-4.18967 4.0852-7.46553 9.13375-9.47222 14.60134C29.18147 53.10371 28.80058 53.35418 28.39433 53.35572zM102.3916 49.3924c-.37012.0014-.72636-.20331-.90153-.55617-2.17189-4.39221-5.11442-8.30104-8.74612-11.61937-.40766-.37249-.43545-1.0052-.06296-1.41286.37347-.40668 1.00616-.43642 1.41286-.06296 3.81398 3.48561 6.90668 7.59309 9.18976 12.20754.24406.49517.04125 1.09555-.45294 1.34059C102.68933 49.35905 102.53906 49.39184 102.3916 49.3924zM42.69436 34.52711c-.31152.00118-.61969-.14317-.81602-.41489-.32299-.448-.22183-1.07339.22617-1.39637 4.19173-3.0227 8.8466-5.20535 13.83593-6.48691.53465-.13483 1.07883.18538 1.21758.72001.13679.53464-.18538 1.07981-.72001 1.21758-4.74641 1.21814-9.17511 3.29544-13.16329 6.17187C43.09843 34.46504 42.89553 34.52636 42.69436 34.52711zM88.70942 33.77311c-.19336.00073-.38888-.0542-.5612-.17073-4.91879-3.30858-10.3809-5.41588-16.23473-6.26192-.54717-.07899-.92605-.58635-.84706-1.13255.07899-.54718.59128-.91435 1.13255-.84706 6.15379.88983 11.89561 3.10447 17.06602 6.583.4582.30784.57969.92945.27087 1.38766C89.3436 33.61739 89.02972 33.77189 88.70942 33.77311zM62.0914 27.14515c-.50879.00192-.94481-.38217-.99754-.89858-.05579-.5496.34373-1.04037.89333-1.09616 1.35203-.13792 2.72774-.21051 4.08906-.21565.55273-.00209 1.00169.44348 1.00377.99621.00209.55273-.44348 1.00168-.99621 1.00377-1.29589.0049-2.60619.0743-3.89379.20515C62.15682 27.14295 62.12363 27.14503 62.0914 27.14515z"></path><path fill="#EDEDED" d="M65.00203 115.88966c-.54883 0-1.09277-.00879-1.63574-.02637-.55176-.0166-.98535-.47852-.96777-1.03027.01758-.55273.47461-.97461 1.03027-.96875.52148.0166 1.0459.02539 1.57129.02539.78613-.00195 1.57031-.02051 2.34961-.05664.57031-.03027 1.01953.40137 1.0459.95215.02539.55176-.40039 1.01953-.95215 1.0459C66.63484 115.86915 65.82137 115.8877 65.00203 115.88966zM57.42879 115.31934c-.0498 0-.10059-.00391-.15137-.01172-6.08789-.92676-11.89453-2.93164-17.25977-5.95898-.48145-.27148-.65137-.88184-.37988-1.3623.27051-.48145.88086-.65137 1.3623-.37988 5.1543 2.9082 10.73145 4.83398 16.57813 5.72461.5459.08301.9209.59277.83789 1.13867C58.3409 114.96485 57.91512 115.31934 57.42879 115.31934zM73.35457 115.19337c-.47949 0-.90234-.3457-.98535-.83398-.0918-.54492.27539-1.06055.82031-1.15234 4.84375-.81641 9.52148-2.35645 13.90234-4.5791.48926-.25293 1.09375-.05273 1.34375.43945s.05371 1.09375-.43945 1.34375c-4.56055 2.31445-9.43066 3.91797-14.47461 4.76855C73.4659 115.18848 73.40926 115.19337 73.35457 115.19337zM92.7159 107.4922c-.32227 0-.63965-.15527-.83203-.44434-.30762-.45898-.18359-1.08008.27539-1.38672 4.91504-3.28906 9.15527-7.39453 12.60254-12.2041.32129-.44824.94531-.55371 1.39551-.22949.44824.32129.55176.94629.22949 1.39551-3.58691 5.00391-8 9.27734-13.11621 12.7002C93.10066 107.43751 92.9073 107.4922 92.7159 107.4922zM35.47273 106.22169c-.20508 0-.41309-.06348-.5918-.19434-4.11914-3.0293-7.75196-6.64844-10.7959-10.75488-.32813-.44434-.23535-1.07031.20801-1.39941.44629-.3291 1.07031-.23535 1.39941.20801 2.9248 3.94727 6.41504 7.42383 10.37403 10.33496.44434.32715.54004.95313.21289 1.39844C36.08308 106.08106 35.78035 106.22169 35.47273 106.22169zM21.61726 90.65626c-.34766 0-.68555-.18164-.87012-.50586-.67383-1.18359-1.30371-2.40234-1.87305-3.62109-.2334-.5-.01758-1.0957.4834-1.3291.50098-.23145 1.0957-.01758 1.3291.4834.5459 1.16992 1.15137 2.33984 1.79883 3.47852.27344.47949.10547 1.08984-.375 1.36328C21.95515 90.61427 21.78523 90.65626 21.61726 90.65626zM108.76863 89.9668c-.16211 0-.32715-.03906-.47949-.12305-.48438-.26563-.66211-.87305-.39648-1.35742.62891-1.14648 1.21582-2.32715 1.74609-3.51074.22559-.50391.81641-.72949 1.32129-.50293.50391.22559.72949.81738.50391 1.32129-.55176 1.23145-1.16309 2.45996-1.81738 3.65332C109.46492 89.7793 109.12215 89.9668 108.76863 89.9668zM17.57429 81.53223c-.4209 0-.8125-.26758-.9502-.68945-1.66894-5.09863-2.51465-10.42871-2.51367-15.84277 0-.75195.01563-1.5.04883-2.24512.02441-.55176.52246-.97559 1.04297-.95508.55176.02441.97949.49121.95508 1.04297-.03125.71582-.04688 1.43457-.04688 2.15723-.00098 5.20215.81152 10.32324 2.41406 15.2207.17188.52539-.11426 1.08984-.63867 1.26172C17.7823 81.51661 17.67683 81.53223 17.57429 81.53223zM112.66805 80.77247c-.09766 0-.19727-.01465-.2959-.04492-.52734-.16309-.82227-.72266-.65918-1.25098 1.44434-4.66797 2.17676-9.53906 2.17676-14.47656.00098-2.48047-.18652-4.97168-.55664-7.40625-.08301-.5459.29199-1.05566.83789-1.13867.54102-.08594 1.05566.29199 1.13867.83789.38574 2.53418.58105 5.12695.58008 7.70704 0 5.1377-.7627 10.20801-2.2666 15.06836C113.49031 80.49708 113.0948 80.77247 112.66805 80.77247zM15.77644 57.83789c-.05371 0-.1084-.00391-.16309-.01367-.54492-.08984-.91406-.60352-.82422-1.14844.83008-5.0459 2.41601-9.92188 4.71289-14.49414.24707-.49316.84668-.69238 1.34277-.44434.49316.24805.69238.84863.44434 1.34277C19.08308 47.47071 17.56062 52.1543 16.76179 57 16.68172 57.49024 16.25789 57.83789 15.77644 57.83789zM113.06355 52.58399c-.4375 0-.83887-.28906-.96191-.73145-.34961-1.25195-.75488-2.50684-1.2041-3.72949-.19043-.51855.0752-1.09277.59375-1.2832.51758-.19043 1.09277.0752 1.2832.59375.46777 1.27246.88965 2.57813 1.25293 3.88184.14844.53125-.16211 1.08301-.69434 1.23145C113.24324 52.57227 113.1534 52.58399 113.06355 52.58399zM109.43269 43.28809c-.36328 0-.71387-.19824-.89063-.54395-2.23633-4.36523-5.11328-8.36426-8.55078-11.88672-.38574-.39551-.37793-1.02832.01758-1.41406.39453-.38477 1.02734-.37891 1.41406.01758 3.57715 3.66504 6.57129 7.82715 8.89844 12.37109.25195.49121.05762 1.09375-.43359 1.3457C109.74129 43.25293 109.58601 43.28809 109.43269 43.28809zM23.40437 38.44434c-.18945 0-.38184-.05371-.55176-.16699-.45996-.30566-.58594-.92578-.28027-1.38574.74707-1.12598 1.55078-2.23828 2.39063-3.30664.34082-.43262.96777-.51074 1.4043-.16797.43359.34082.50977.96973.16797 1.4043-.80664 1.02637-1.5791 2.09473-2.29688 3.17578C24.04597 38.28711 23.72859 38.44434 23.40437 38.44434zM29.72859 30.71876c-.25586 0-.51172-.09766-.70703-.29297-.39063-.39063-.39063-1.02344 0-1.41406 4.36328-4.3623 9.41309-7.8584 15.00781-10.3916.50391-.22852 1.0957-.00488 1.32324.49902.22754.50293.00488 1.0957-.49902 1.32324-5.37402 2.43262-10.22559 5.79199-14.41797 9.9834C30.24031 30.6211 29.98445 30.71876 29.72859 30.71876zM96.26863 27.12598c-.21973 0-.44141-.07227-.62598-.22168-4.61816-3.71973-9.80273-6.53711-15.41211-8.375-.52441-.17188-.81055-.73633-.63867-1.26172.1709-.52344.73242-.81445 1.26172-.63867 5.83887 1.91309 11.2373 4.8457 16.04297 8.71875.43066.3457.49805.97559.15137 1.40527C96.85066 26.99903 96.5616 27.12598 96.26863 27.12598zM50.04207 18.39161c-.42578 0-.82031-.27344-.9541-.7002-.16504-.52734.12793-1.08887.6543-1.25391 4.85742-1.52441 9.92383-2.30762 15.05957-2.32715.00098 0 .00293 0 .00391 0 .55078 0 .99805.44531 1 .99609.00195.55273-.44434 1.00195-.99609 1.00391-4.93555.01855-9.80273.77051-14.46777 2.23535C50.24226 18.37696 50.1407 18.39161 50.04207 18.39161zM74.74129 17.06055c-.06445 0-.12891-.00586-.19434-.01855-1.28125-.25293-2.58398-.45605-3.87109-.60547-.54883-.06348-.94141-.55957-.87793-1.1084.06348-.54785.55176-.94434 1.1084-.87793 1.33887.15527 2.69434.36621 4.02734.62891.54199.10742.89453.63281.78809 1.1748C75.62801 16.73047 75.20906 17.06055 74.74129 17.06055zM65.00008 106.3047c-2.28027 0-4.56738-.1875-6.79492-.55664-.54492-.08984-.91406-.60449-.82324-1.14941.08984-.54492.6084-.92383 1.14941-.82324 4.77539.79102 9.79395.69043 14.53809-.29883.53906-.11914 1.07129.23438 1.18262.77441.11328.54102-.2334 1.07031-.77441 1.18262C70.70613 106.01173 67.85457 106.3047 65.00008 106.3047zM52.54402 104.34376c-.10156 0-.20605-.01563-.30859-.04883-1.28906-.41797-2.57813-.9082-3.8291-1.45703-.50488-.22266-.73535-.8125-.51367-1.31836.22266-.50488.81055-.7334 1.31836-.51367 1.18945.52246 2.41504.98926 3.6416 1.38672.52539.16992.8125.73438.64258 1.25977C53.35847 104.0752 52.9659 104.34376 52.54402 104.34376zM79.0323 103.79493c-.40625 0-.78809-.24902-.9375-.65234-.19238-.51758.07129-1.09277.58984-1.28516 5.45703-2.02539 10.49219-5.31934 14.5625-9.52441.38477-.39844 1.01758-.40625 1.41406-.02344.39746.38477.40723 1.01758.02344 1.41406-4.27637 4.41895-9.56934 7.87988-15.30469 10.00879C79.2657 103.7754 79.14754 103.79493 79.0323 103.79493zM43.51375 100.10938c-.18262 0-.36719-.0498-.5332-.1543-5.18555-3.27344-9.65723-7.74414-12.93262-12.93066-.29492-.4668-.15527-1.08496.31152-1.37988.46875-.29395 1.08496-.1543 1.37988.31152 3.11719 4.93652 7.37403 9.19238 12.30957 12.30762.4668.29492.60645.91211.31152 1.37988C44.17 99.94434 43.84578 100.10938 43.51375 100.10938zM97.80281 89.42579c-.20117 0-.4043-.06055-.58105-.18652-.44922-.32129-.55273-.94629-.23145-1.39551.75391-1.05371 1.46289-2.15723 2.1084-3.2793.27539-.47949.8877-.64453 1.36523-.36914.47949.27539.64453.88672.36914 1.36523-.67871 1.17969-1.42383 2.33887-2.21582 3.44727C98.42195 89.28028 98.11433 89.42579 97.80281 89.42579zM28.08308 82.2002c-.38477 0-.75195-.22266-.91699-.59766-2.06934-4.71094-3.22461-9.71875-3.43555-14.88672-.02246-.55176.40625-1.01758.95801-1.04004.55371-.05957 1.01855.40625 1.04004.95801.2002 4.91797 1.30078 9.68359 3.26953 14.16406.22168.50586-.00781 1.0957-.51367 1.31836C28.35359 82.17286 28.21687 82.2002 28.08308 82.2002zM102.55769 80.65723c-.12109 0-.24414-.02148-.36328-.06836-.51465-.20117-.76953-.78125-.56836-1.29492 1.77734-4.55371 2.67871-9.3623 2.67871-14.29395 0-.7666-.02148-1.52735-.06445-2.28321-.03125-.55176.38965-1.02344.94141-1.05469.54199-.02637 1.02246.38965 1.05469.94141.0459.79492.06836 1.60157.06836 2.39649 0 5.18164-.94727 10.23535-2.81543 15.02051C103.33504 80.41602 102.95711 80.65723 102.55769 80.65723zM24.92488 61.68555c-.03516 0-.07129-.00195-.10742-.00586-.54883-.05859-.94629-.55078-.8877-1.10059.14453-1.35254.3584-2.71387.63574-4.0459.11133-.54004.63086-.89551 1.18262-.77441.54004.1123.8877.6416.77441 1.18262-.26367 1.2666-.4668 2.5625-.60449 3.85059C25.86336 61.30469 25.42976 61.68555 24.92488 61.68555zM104.45222 57.72071c-.46289 0-.87891-.32324-.97754-.79492-.2666-1.27148-.59863-2.54102-.9873-3.77148-.16602-.52637.12695-1.08887.65332-1.25488.5332-.16406 1.08789.12695 1.25488.65332.40723 1.29297.75586 2.62695 1.03613 3.96289.11328.54004-.23242 1.07031-.77344 1.18359C104.58894 57.71387 104.52058 57.72071 104.45222 57.72071zM27.20418 51.97364c-.11621 0-.2334-.01953-.34863-.0625-.51758-.19238-.78125-.76758-.58887-1.28613 2.13086-5.73828 5.59277-11.03125 10.01172-15.30664.39746-.38281 1.03027-.37402 1.41406.02344.38379.39648.37305 1.03027-.02344 1.41406-4.20508 4.06934-7.5 9.10547-9.52735 14.56543C27.99226 51.72461 27.61043 51.97364 27.20418 51.97364zM101.2159 48.29004c-.37012 0-.72559-.20605-.89941-.55957-2.15527-4.40039-5.08301-8.32031-8.70215-11.65234-.40625-.37402-.43164-1.00684-.05762-1.41309.375-.40527 1.00781-.43262 1.41309-.05762 3.80078 3.5 6.87793 7.61914 9.14355 12.24219.24219.49609.03711 1.0957-.45801 1.33887C101.51375 48.25782 101.36336 48.29004 101.2159 48.29004zM41.57527 33.19922c-.31152 0-.61914-.14551-.81445-.41797-.32129-.44922-.21777-1.07422.23145-1.39551 4.20313-3.00684 8.86621-5.17188 13.86035-6.43457.53516-.13281 1.07813.18945 1.21484.72461.13477.53516-.18945 1.0791-.72461 1.21484-4.75098 1.2002-9.1875 3.26074-13.18652 6.12207C41.97957 33.13868 41.77644 33.19922 41.57527 33.19922zM87.59285 32.61914c-.19336 0-.38867-.05566-.56055-.17285-4.90625-3.32715-10.36035-5.45508-16.21094-6.32324-.54688-.08105-.92383-.58984-.84277-1.13574.08105-.54688.59473-.91211 1.13574-.84277 6.15039.91309 11.88379 3.14941 17.04102 6.64746.45703.30957.57617.93164.26563 1.38867C88.22762 32.46582 87.91316 32.61914 87.59285 32.61914zM61.00008 25.89063c-.50879 0-.94336-.38574-.99414-.90234-.05371-.5498.34766-1.03906.89746-1.09277 1.35254-.13281 2.72852-.2002 4.08984-.2002.55273 0 1 .44727 1 1s-.44727 1-1 1c-1.2959 0-2.60645.06445-3.89453.19043C61.06551 25.88868 61.0323 25.89063 61.00008 25.89063z"></path><path fill="#FAD553" d="M48.90837,47.84045h32.18327c4.51862,0,7.21407,5.03573,4.70805,8.79577L69.71182,80.77455
		c-2.23915,3.35963-7.17556,3.36017-9.41544,0.00101L44.20099,56.63723C41.69386,52.87728,44.38919,47.84045,48.90837,47.84045z"></path><path fill="#FAB941" d="M85.8011,56.63428l-16.09009,24.1399c-2.23999,3.36011-7.16992,3.36011-9.40991,0l-0.53003-0.80005
		c2.41992,1.18994,5.5498,0.54004,7.19995-1.93994l16.09009-24.14014c1.17993-1.77979,1.19995-3.84985,0.40991-5.52979
		C86.451,49.73413,87.82088,53.59424,85.8011,56.63428z"></path><path fill="#FCDE7E" d="M58.33113 71.68409c.19995.31006.11987.72998-.19019.93018-.10986.07983-.23999.10986-.36987.10986-.21997 0-.43994-.1001-.57007-.2998l-2.34985-3.57007c-.21021-.31006-.12012-.73022.18994-.92993.10986-.07007.23999-.11011.36987-.11011.21997 0 .42993.09985.56006.30005L58.33113 71.68409zM53.94099 65.03419c.19995.31006.12012.72998-.18994.92993-.11011.08008-.23999.11011-.37012.11011-.21997 0-.43994-.1001-.56982-.30005l-6.33008-9.59009c-.19995-.31006-.12012-.72998.18994-.93994.11011-.06982.23999-.10986.37012-.10986.21997 0 .43994.09985.56982.2998L53.94099 65.03419zM63.15096 50.06421c0 .36987-.31006.67993-.67993.67993H50.98103c-.37012 0-.67993-.31006-.67993-.67993 0-.37012.30981-.67017.67993-.67017h11.48999C62.8409 49.39405 63.15096 49.6941 63.15096 50.06421zM71.12093 50.06421c0 .36987-.30005.67993-.67993.67993h-4.27002c-.36987 0-.67993-.31006-.67993-.67993 0-.37012.31006-.67017.67993-.67017h4.27002C70.82088 49.39405 71.12093 49.6941 71.12093 50.06421z"></path></svg>