<svg xmlns="http://www.w3.org/2000/svg" enable-background="new 0 0 64 64" viewBox="0 0 64 64" id="website-portfolio"><circle cx="32" cy="32" r="32" fill="#53b4ed"></circle><path fill="#e56353" d="M59.75,24.02H4.25v-9.73c0-3.53,2.86-6.4,6.4-6.4h42.7c3.53,0,6.4,2.86,6.4,6.4V24.02z"></path><path fill="#ecf0f1" d="M53.35,56.11h-42.7c-3.53,0-6.4-2.86-6.4-6.4V20.08h55.49v29.64C59.75,53.24,56.88,56.11,53.35,56.11z"></path><path fill="#ebeff2" d="M30.67,16.01H11.24c-1.13,0-2.05-0.92-2.05-2.05l0,0c0-1.13,0.92-2.05,2.05-2.05h19.44
					c1.13,0,2.05,0.92,2.05,2.05l0,0C32.72,15.09,31.81,16.01,30.67,16.01z"></path><path fill="#4bc8f1" d="M43.77,13.96c0,1.31-1.06,2.37-2.37,2.37c-1.31,0-2.37-1.06-2.37-2.37c0-1.31,1.06-2.37,2.37-2.37
						C42.71,11.6,43.77,12.65,43.77,13.96z"></path><path fill="#8a8bc4" d="M50.48,13.96c0,1.31-1.06,2.37-2.37,2.37c-1.31,0-2.37-1.06-2.37-2.37c0-1.31,1.06-2.37,2.37-2.37
						C49.42,11.6,50.48,12.65,50.48,13.96z"></path><path fill="#00dcab" d="M56.89,13.96c0,1.31-1.06,2.37-2.37,2.37c-1.31,0-2.37-1.06-2.37-2.37c0-1.31,1.06-2.37,2.37-2.37
						C55.83,11.6,56.89,12.65,56.89,13.96z"></path><g><path fill="#3b566a" d="M38.5,30.49H25.5c-0.42,0-0.76-0.34-0.76-0.76v-4.01c0-0.42,0.34-0.77,0.77-0.77h12.99
							c0.42,0,0.77,0.34,0.77,0.77v4.01C39.26,30.15,38.92,30.49,38.5,30.49z M26.26,28.97h11.49v-2.49c0-0.01,0-0.01-0.01-0.01
							H26.26c-0.01,0-0.01,0-0.01,0.01V28.97z"></path><path fill="#647a8a" d="M45.6,51.68H18.4c-1.96,0-3.55-1.59-3.55-3.55V32.21c0-1.96,1.59-3.55,3.55-3.55H45.6
						c1.96,0,3.55,1.59,3.55,3.55v15.92C49.16,50.09,47.57,51.68,45.6,51.68z"></path><rect width="3.86" height="23.02" x="20.22" y="28.66" fill="#3b566a"></rect><rect width="3.86" height="23.02" x="39.92" y="28.66" fill="#3b566a"></rect><rect width="1.93" height="23.02" x="22.15" y="28.66" fill="#354f60"></rect><rect width="1.93" height="23.02" x="41.85" y="28.66" fill="#354f60"></rect><path fill="#e4e4e4" d="M43.05 41.76h-2.39c-1.01 0-1.84-.82-1.84-1.84v-.6c0-1.01.82-1.84 1.84-1.84h2.39c1.01 0 1.84.82 1.84 1.84v.6C44.88 40.94 44.06 41.76 43.05 41.76zM23.34 41.76h-2.39c-1.01 0-1.84-.82-1.84-1.84v-.6c0-1.01.82-1.84 1.84-1.84h2.39c1.01 0 1.84.82 1.84 1.84v.6C25.18 40.94 24.36 41.76 23.34 41.76z"></path></g></svg>